<svg id="Layer_1" data-name="Layer 1" xmlns="http://www.w3.org/2000/svg" viewBox="0 0 470.29 223.95"><defs><style>.cls-1{fill:#fff;}</style></defs><title>air_logo_complete</title><path class="cls-1" d="M122.09,117.33c-2-2.5-4.84-2-7.31-2.61a11.15,11.15,0,0,1-5.26-2.67l1.28-1c-.45-.13-.72-.22-1-.28a3.93,3.93,0,0,1-1.21-.26c-.88-.56-1.69-1.22-2.53-1.84.67-.68,1.33-1.37,2-2,1.14-1.13,2.38-2.17,3.41-3.39q4.94-5.84,9.73-11.79A7.13,7.13,0,0,0,122.53,86a2.36,2.36,0,0,0-.78-1.37,2.09,2.09,0,0,1-.49-2.88c1.69-3.06,3.3-6.18,5.15-9.15a40.86,40.86,0,0,1,3.94-4.91,4.43,4.43,0,0,0,1.33-3.84,11.86,11.86,0,0,1,2.69-8.75c1.14-1.48,2.48-1.55,4-.47,1,.73,2.1,1.4,3.16,2.08a5,5,0,0,0,7.11-2.09,11.41,11.41,0,0,1,4.86-5.79,2.22,2.22,0,0,1,1.69-.27c1.5.65,3.16,1.1,4,2.84a1.91,1.91,0,0,0,1.74.56,6.27,6.27,0,0,0,2.33-1.47,52.58,52.58,0,0,1,15.2-9.9c2.29-1,4.46-2.31,6.71-3.43a9.34,9.34,0,0,1,1.69-.48c4.17-1.15,7.69-3.68,11.36-5.77,2.12-1.21,4.62-2,6.34-4.12,1-1.25,2.88-1.8,4.34-2.71a38.7,38.7,0,0,1,10.62-4.45c1.74-.46,3.61-.48,5.33-1a27.92,27.92,0,0,1,10-.91c3,.2,6,.15,9,.42,1.29.12,2.72.12,3.81,1.22.35.36,1.16.23,1.73.42a13.22,13.22,0,0,1,1.58.76,2.8,2.8,0,0,0,.59.3c.68.15,1.36.29,2,.37,2.54.3,4.43,2,6.59,3.12.9.46,1.77,1.17,2.69,1.74A20.49,20.49,0,0,0,273.26,29c4.9.16,9.81.06,14.71,0a2.39,2.39,0,0,0,1.34-.56c.88-.7,1.67-1.5,2.51-2.24a8.84,8.84,0,0,1,11.27-.74,3.44,3.44,0,0,0,2.36.29c5.37-1.16,10.74-2.31,16.27-2.38,3,0,6-.25,9-.21a26.66,26.66,0,0,1,5.68.63,1.85,1.85,0,0,0,2.27-1c1.24-1.7,2.54-3.35,3.9-4.94a13.75,13.75,0,0,1,10.18-4.87,8.83,8.83,0,0,0,1.24-.21,4.46,4.46,0,0,1,4.61,1.62,4.36,4.36,0,0,1-.06,5.23c-1.21,1.66-2.58,3.2-3.8,4.85-1.09,1.48-1,1.54.75,2.06a2.64,2.64,0,0,1,1.13.53c1.14,1.16,2.06.56,3.16-.15a19.47,19.47,0,0,1,16.87-2.36c6.54,2,8.69,9.2,4.47,14.65-.41.54-1.52,1.12-.34,2,1.23-1.33,2.35-2.7,3.64-3.87a4.21,4.21,0,0,1,4.83-.62A4.53,4.53,0,0,1,392,40.88a10.74,10.74,0,0,1-1.86,6.76c-1.32,2-1.32,2,.7,3.89l.44-1.75a49.07,49.07,0,0,1,7.17-15.69,12.86,12.86,0,0,1,9.89-5.85c.27,0,.53-.09.64-.11a28.79,28.79,0,0,1,.06-5.56c1-4.7,7.85-7.16,11.54-5.73,2.92,1.13,5.31,2.7,6.3,5.87a5.75,5.75,0,0,1-5.6,7.7h-.56c-2.39,0-2.95.92-1.84,3.34,2.25-2.47,4.87-1.68,7.33-.64s4.85,2,6.66,3.68a6.24,6.24,0,0,0,4.25,1.62,22.29,22.29,0,0,1,12.67,5c3.64,3.12,4.51,6.84,2.66,11.36-1,2.53-2.5,4.89-3.76,7.33L448,63.4a16.49,16.49,0,0,1,3.7.05,3.88,3.88,0,0,1,2.92,4c0,1.22,0,2.44,0,3.65a4.12,4.12,0,0,1-2.11,3.84,18.15,18.15,0,0,1-8.85,2.71c-.79,0-1.58,0-2.52,0,.09.4.14.69.21,1,.24.9.51,1.79.74,2.69a17.38,17.38,0,0,0,2.8,4.33c2,1.48,2.63,4.84,1.62,7.71A12.68,12.68,0,0,1,442,99c-2.47,1.9-5.17,3.5-7.78,5.23-.29.19-.6.36-1.15.69l1.75.69,16,6.58a4.52,4.52,0,0,1,3,4.6c0,1.36,0,2.72,0,4.07-.16,3.42-2.72,5.3-6,4.25-4.11-1.33-8.14-2.92-12.27-4.21a120.47,120.47,0,0,0-19.7-4.49,8.32,8.32,0,0,0-1.26,0c-.37,0-.73,0-1.24.08a62.76,62.76,0,0,0,.62,6.44c.79,4,1.65,8,2.79,11.93a20.44,20.44,0,0,0,2.69,5.13c3.35,5.21,6.73,10.38,6.82,16.9,0,1.25.12,2.51.19,3.92.27,0,.67.08,1.06.09a61.86,61.86,0,0,1,6.72.34,11.73,11.73,0,0,1,4.67,1.69,34.45,34.45,0,0,0,12.48,5.3,26.31,26.31,0,0,1,6.82,2.38,29.71,29.71,0,0,1,5.43,4.09c1.34,1.16,2.56,2.11,4.48,1.41a1.62,1.62,0,0,1,2.11.9,5.33,5.33,0,0,0,1.39,1.31,17.77,17.77,0,0,1,1.74,1.4c1.28,1.39,2.59,2.66,4.62,2.84a2,2,0,0,1,1.11.56,23.86,23.86,0,0,0,6.54,4c.54.25,1.29,1.05,1.21,1.46a3.73,3.73,0,0,1-1.33,2.12,4,4,0,0,1-2.27.49c-5.85-.05-11.7-.34-17.55-.21-6.87.16-13.73.62-20.59,1-11.87.73-23.76,1.06-35.65.79q-12.35-.27-24.69-.81c-5.32-.23-10.64-.7-16-1-2.48-.15-5-.27-7.44-.3-13.72-.13-27.44-.38-41.16-.26-7,.06-14,.84-21,1.27-3.83.23-7.66.38-11.48.62-5.36.33-10.72.72-16.09,1.08-4.52.3-9,.56-13.57.9-4.1.3-8.19.7-12.29,1s-8.2.75-12.3.88c-8.65.29-17.31.53-26,.55-3.63,0-7.25-.62-10.88-.92q-3.63-.3-7.27-.46a2.77,2.77,0,0,0-1.3.44c-7.07,3.79-14.08,7.67-21.19,11.38A191,191,0,0,1,118.54,225a143.83,143.83,0,0,1-34.43,3.11A114.76,114.76,0,0,1,58.64,224a175.73,175.73,0,0,1-38-14.61c-2-1-3.87-2.17-4-4.64-.18-3.17-.16-6.36-.13-9.54a21.54,21.54,0,0,1,.4-4.31,4.13,4.13,0,0,1,6.33-2.74c3.86,2.66,8.28,3.77,12.67,5a140,140,0,0,0,19.78,3.46c10.63,1.3,21.29,1.09,31.95,1,3.07,0,6.13-.46,9.36-.71A2.49,2.49,0,0,0,94.88,195c-8.6-1.37-17.28-.52-25.9-1.07-4.71-.3-9.43-.34-14.14-.52q-3.9-.14-7.79-.35a9.17,9.17,0,0,1-1.63-.49,9.22,9.22,0,0,1,1.89-1.29,99.43,99.43,0,0,1,10.92-3.28c2.61-.52,5.12-1.53,7.65-1.9,2.76-.4,4.74-2.32,7.38-2.76.79-.13,1.43-1.08,2.22-1.71.7,1.11,1.66.05,2.58.07,1.44,0,1.24-1.3,1.86-1.94,1,1.73,2.11,1.85,3.52.41a15,15,0,0,0,1.47-1.69,18.68,18.68,0,0,0,1-1.8.58.58,0,0,1,.19.09l1.53,1.44c.31-.64.64-1.27.92-1.91.16-.37.25-.77.42-1.29.54.68.88,1.52,1.45,1.7.41.13,1.1-.61,1.75-1l.72,1.18,1.47-.79a3.13,3.13,0,0,0,.26.56c.93,1.34,1.63,1.43,2.79.3.68-.66,1.26-1.54,2.24-.68l14.08-40.48c-.43.16-.85.28-1.23.47-3.86,1.88-7.46,4-9.56,8.06-1,1.92-3.27,2.58-5.52,2a4.12,4.12,0,0,1-3.27-4.18,10.57,10.57,0,0,1,.32-3.59c1.89-6.13,5-11.51,11-14.35,3.1-1.48,6.62-2.14,10-3,3-.74,6.12-1.18,9.17-1.77a16.8,16.8,0,0,0,2.34-.62c.25-.09.42-.43.58-.7.55-.94,1-1.91,1.61-2.84s1.34-1.89,1.87-2.91c.19-.35,0-.93-.09-1.41a3.52,3.52,0,0,0-1.29.14c-.94.51-1.8,1.17-2.73,1.72a19.71,19.71,0,0,1-3.32,1.77C122.37,115.13,121.47,115.59,122.09,117.33ZM20.78,191.85c0,4.35,0,8.37,0,12.39a2.11,2.11,0,0,0,1.08,1.42c2.17,1.12,4.42,2.09,6.62,3.15A99.82,99.82,0,0,0,40.38,214c3.87,1.29,7.66,2.82,11.57,4,4.7,1.42,9.43,2.81,14.23,3.76a112.27,112.27,0,0,0,14.94,2,162.17,162.17,0,0,0,17.66.11,125.23,125.23,0,0,0,13.86-1.78,85.22,85.22,0,0,0,11.47-2.36c7.55-2.32,15-4.91,22.46-7.58,3.84-1.38,7.54-3.13,11.27-4.78,2.1-.93,4.14-2,6.2-3s4.15-2,6.15-3.11c2.69-1.51,5.28-3.18,8-4.71,1.36-.78,2.83-1.38,4.21-2.13,2.19-1.19,4.32-2.47,6.51-3.66s4.37-2.22,6.52-3.41c3.37-1.85,6.67-3.8,10-5.64,3.19-1.74,6.44-3.37,9.64-5.09,2.7-1.45,5.35-3,8-4.44q8.65-4.69,17.33-9.34c3.62-1.93,7.29-3.76,10.91-5.68,3.87-2,7.69-4.17,11.58-6.18s7.9-4,11.88-5.93c3.46-1.69,6.91-3.41,10.45-4.91,4.06-1.72,8.2-3.26,12.33-4.8,4.91-1.83,9.85-3.6,14.79-5.37,3.19-1.14,6.39-2.23,9.59-3.37,4.46-1.59,8.91-3.2,13.37-4.79a168.1,168.1,0,0,1,24.48-6.62c6.76-1.32,13.55-2.57,20.39-3.36a146.41,146.41,0,0,1,16.11-.63c4.34,0,8.69.2,13,.54a77.86,77.86,0,0,1,10.38,1.43q9.45,2.06,18.78,4.63c3.48,1,6.83,2.43,10.25,3.62a1,1,0,0,0,.84-.5c.17-1.25.24-2.51.32-3.76.06-.87-.37-1.27-1.21-1.6-2.34-.91-4.62-2-6.92-3-.92-.4-1.83-.86-2.78-1.19-4.13-1.43-8.24-2.91-12.41-4.2a142.11,142.11,0,0,0-21.68-4.6,123,123,0,0,0-21.09-1.43,228.87,228.87,0,0,0-24.57,1.93,224.29,224.29,0,0,0-22.59,4.47,171,171,0,0,0-25.79,8c-3.47,1.45-7.13,2.43-10.65,3.76-5.83,2.21-11.67,4.41-17.41,6.84-5.53,2.34-11,4.93-16.4,7.48q-21.07,9.91-42.11,19.89c-8,3.77-15.86,7.69-23.88,11.33-10.86,4.93-21.08,11.2-32.34,15.29-2.75,1-5.3,2.51-8,3.53-8.33,3.08-16.66,6.2-25.09,9a208.59,208.59,0,0,1-28,6.83A136.43,136.43,0,0,1,82,201.77c-7.48,0-15-.21-22.43-.83-6.41-.53-12.77-1.66-19.12-2.74A67.78,67.78,0,0,1,32,196c-2.88-.88-5.72-1.92-8.57-2.92C22.6,192.74,21.82,192.32,20.78,191.85ZM375.62,83.69c0,1.48,0,3,0,4.61a8.12,8.12,0,0,0,5.74,8,19.94,19.94,0,0,0,9.84.66,22.27,22.27,0,0,0,13.26-7.28c1-1.12,2.05-2.21,3.23-3.48,0,1,0,1.74,0,2.48a10.23,10.23,0,0,0,5.06,9.71,21.31,21.31,0,0,0,16.37,3.06c5.35-1.12,9.25-4.74,12.94-8.49.61-.62.66-1.86.83-2.84a1.18,1.18,0,0,0-.47-1c-.25-.11-.78.15-1.06.4-1.1,1-2.12,2.12-3.23,3.12-4.43,4-9.32,6.64-15.59,5.88-3-.36-5.72-2.11-6.4-4.63a11.34,11.34,0,0,1,1.11-8.7c2.21.69,4.33,1.38,6.47,2a18.66,18.66,0,0,0,10.63.42,4.68,4.68,0,0,0,3.6-5.15,7.17,7.17,0,0,0-2.08-4.62,16.71,16.71,0,0,0-11.33-5.17c-5.27-.46-9.33,2.13-12.9,5.68-.33.33-.75,1-1,.92-1.36-.35-1.63.83-2.24,1.48-2.84,3-5.44,6.34-8.55,9.07a15,15,0,0,1-11.08,3.94c-3.13-.2-5.13-2.13-5.11-5.3,0-7.68,4-13.23,9.85-17.65A6.65,6.65,0,0,1,399,69.47c.95.19,1.77.42,2,1.47a2.47,2.47,0,0,1-1,2.72,17.48,17.48,0,0,1-2,1,1.75,1.75,0,0,0-.83,2.85,4.21,4.21,0,0,0,1.56,1.34,4.68,4.68,0,0,0,6-1.12,5.88,5.88,0,0,0,.36-6.92,9.57,9.57,0,0,0-4.77-3.54c-6.33-2.06-11.81-.19-16.65,3.9a60,60,0,0,0-5.3,5.75,2.71,2.71,0,0,0-1.6.76c-1.53,2.07-2.9,4.25-4.44,6.3a24,24,0,0,1-6.92,6.69,2.39,2.39,0,0,1-1.91.24c-.37-.18-.4-1.12-.51-1.73a1.73,1.73,0,0,1,.12-.82q1.66-5,3.35-9.9A88.44,88.44,0,0,0,369.13,70c.59-2.57-1-4.11-3.59-4.13-4.56,0-8.44,1.8-12,4.52-1,.79-2,1.64-3.22,2.67.17-.82.29-1.31.38-1.81.37-2.11-.33-3-2.46-2.77-1.62.14-3.22.51-4.84.69-.8.09-.91.43-1,1.18A37.73,37.73,0,0,1,339.36,82a1.56,1.56,0,0,0-1.22.4c-.58.85-1,1.82-1.53,2.67-2.51,3.82-5,7.66-7.64,11.38a9.73,9.73,0,0,1-3,2.42c-1,.6-1.61.2-1.63-1a11.78,11.78,0,0,1,.25-3.05,79.78,79.78,0,0,1,8.66-20.68c.51-.87,1.1-1.69,1.69-2.59-4.29-.37-7.14,1.23-11.47,6.33-3.07-2.53-5.49-3-9.34-1.33a28.3,28.3,0,0,0-6.53,4,36.09,36.09,0,0,0-9.21,12.24c-.27.54-.49,1.42-.9,1.53-1.46.39-1.64,1.68-2.2,2.68-1.15,2-2.2,4.12-3.29,6.19a36.47,36.47,0,0,1-7.3,10.05,12.83,12.83,0,0,1-1.85,1.21l-.52-.3a21.22,21.22,0,0,1,.36-4.07c1.28-4.52,2.79-9,4.09-13.48a44.6,44.6,0,0,0,1.55-7.18c.24-2.13-1.13-3.08-3.21-2.57-4.35,1.07-7.68,3.75-10.75,6.83-1.61,1.62-3.12,3.35-4.79,5.16.2-.92.4-1.64.5-2.37.27-1.88-.49-2.59-2.32-2.06-1.34.39-2.62,1-3.94,1.43a2.71,2.71,0,0,0-2.11,2.67c-.58,4.31-1.76,8.54-2.77,13.1-1.27-1.09-1.47-.2-1.84.45-1.42,2.46-2.77,5-4.34,7.34a8.68,8.68,0,0,1-4.79,3.71c-1.86.54-2.44,0-1.94-1.82a27.45,27.45,0,0,0,1.08-10c-.4-4.27-2.84-6.12-7-5.11a23.83,23.83,0,0,0-11.55,7.09,47.11,47.11,0,0,0-9.1,13.88c-.2.46-.43,1.23-.74,1.28-1.19.21-1.33,1.21-1.73,2-2.92,5.69-5.77,11.41-8.73,17.07a44.52,44.52,0,0,1-3,4.35c.67-2,1.37-3.67,1.76-5.39.94-4.13-.7-7-4.67-8.53-.52-.2-1.09-.28-1.61-.49a33.17,33.17,0,0,1-3.58-1.54,3.56,3.56,0,0,1-1.83-3.4c0-3.1,3.69-7.16,7-7.59.65-.09,1.71.08,2,.5a2.43,2.43,0,0,1-.33,2c-.75,1.18-1.72,2.21-2.58,3.32-.64.83-1.06,1.8-.34,2.69s1.81.58,2.7.15a10.27,10.27,0,0,0,5.86-7.89c.67-3.83-.73-5.18-4.55-4.54a18,18,0,0,0-4,1.18c-6,2.57-10.58,6.68-12,13.27-1,4.7-.07,7.45,4.18,9.59.83.42,1.65.88,2.44,1.37,2.4,1.47,3.38,3.31,2.7,6.62-.8,3.94-3.41,6.67-7.05,8.36a5.05,5.05,0,0,1-1.21.35c-1.71.32-2.73-.39-2.62-2.12a29.34,29.34,0,0,1,1-4.31c.09-.42.32-1.05.13-1.23a2,2,0,0,0-1.37-.44,3.89,3.89,0,0,0-1.57.54,9.31,9.31,0,0,0-4.14,8.5c.3,1.91,1.31,3.22,2.87,3.35a14.07,14.07,0,0,0,3.9-.15,28.68,28.68,0,0,0,10.37-4.74c5.83-3.94,9.82-9.4,13.08-15.5,1.58-3,3.15-5.92,4.79-9-.11,1.41-.25,2.65-.28,3.89a30.9,30.9,0,0,0,.13,3.78c.37,3.57,2.7,5.36,6.2,4.67,4.37-.86,7.91-3.3,11.1-6.23,4.53-4.16,7.34-9.52,9.9-15a1.66,1.66,0,0,1,1.75-1.2,8.44,8.44,0,0,0,6-2.33c1.51-1.36,3-2.74,4.19-3.84l-4.44,14.36.39.27c2.28-1,4.54-2.12,6.84-3.09a3,3,0,0,0,1.92-2.34c.33-1.59.77-3.17,1.19-4.74,2.08-7.79,4.48-15.48,8.42-22.58,1.95-3.51,4.2-6.78,8-8.61a13.73,13.73,0,0,1,2.44-.64,14.5,14.5,0,0,1-.27,2.09c-1.38,4.55-2.84,9.06-4.17,13.62-1.17,4-2.4,8.08-2.17,12.36.12,2.31,1.47,3.22,3.69,2.66,2.87-.73,4.87-2.69,6.75-4.79a72.19,72.19,0,0,0,9.34-13.8c.29-.53.59-1.05.89-1.58a13,13,0,0,1,0,2.49,53.7,53.7,0,0,0,.2,6.14c.24,2,1.94,2.88,3.92,2.51,2.95-.56,5.19-2.28,7.25-4.28,4-3.89,6.87-8.62,9.66-13.39l1.44-2.47a.59.59,0,0,1,.08.48c-.73,3.35-1.26,6.73-.47,10.13.48,2.09,1.84,2.78,3.89,2.3a10.7,10.7,0,0,0,5.89-3.85c3-3.69,5.8-7.55,8.68-11.35.14-.19.25-.4.39-.58s.3-.33.64-.7l-4.28,12.18.44.39c2.63-.71,5.28-1.39,7.89-2.17.32-.09.55-.71.69-1.12.88-2.75,1.7-5.53,2.59-8.28,1.95-6,4.41-11.8,8.29-16.87,1.64-2.14,3.52-4.08,6.23-4.79a10.57,10.57,0,0,1,2.85,0,10.38,10.38,0,0,1-.17,2.79c-1.44,4.18-3.15,8.28-4.47,12.5a43.85,43.85,0,0,0-1.78,8.6c-.28,2.69,1.31,4,4,4.09a7.57,7.57,0,0,0,5.45-1.84c2.89-2.58,5.65-5.3,8.31-8.11A54.68,54.68,0,0,0,375.62,83.69ZM206.42,58.17l.34.13a10.67,10.67,0,0,0-.79,1.58,11.07,11.07,0,0,1-3.37,4.66,3.68,3.68,0,0,0-.54,1.05c-.41.81-.63,2.06-1.26,2.32a2.92,2.92,0,0,0-1.52,1.65,8.67,8.67,0,0,1-1.9,3.51c-1.27,1.76-1.87,4-4,5.06a.42.42,0,0,0-.17.33c0,2-1.75,3-2.51,4.6s-2.4,3.06-3.49,4.67c-1.91,2.85-3.68,5.8-5.55,8.67-.53.81-1.24,1.51-1.84,2.28-1.11,1.44-2.53,2.76-3.19,4.38-.49,1.21-1,1.54-2.07,1.43.08,2.14,0,2.14-1,3.57-1.34,1.76-2.72,3.51-3.89,5.38-1.62,2.58-3.79,4.75-5.3,7.4a11.51,11.51,0,0,1-2.08,2,2.85,2.85,0,0,0-.51.78,8.8,8.8,0,0,1-1.43,2.2,33.88,33.88,0,0,0-3,4.55c-.24.36-.69.59-.94.94-.7,1-1.36,2-2,3-.5.78-1,1.58-1.42,2.37a14.49,14.49,0,0,0,3.56-.42c.58-.12,1.47,0,1.7-.33a4,4,0,0,1,2.92-1.55c1.45-.25,2.11-1.41,2.73-2.4,2-3.21,3.77-6.58,5.77-9.8,2.27-3.64,4.69-7.17,7.05-10.75,1.6-2.43,3.2-4.87,4.83-7.29a2.09,2.09,0,0,1,.91-.82c2.18-.76,4.57-1,6.41-2.62,0,0,.09,0,.14,0,1-.38,2-.77,3.06-1.13l4.14-1.44a3.27,3.27,0,0,0,.46-.28l3.28-1.83a6.8,6.8,0,0,1,.38,1.74c-.17,2.28-.45,4.54-.63,6.82a18.19,18.19,0,0,0,.94,8.62c1.42,3.42,4.43,4.89,7.38,3,3.61-2.27,7-4.89,10.36-7.51.61-.47.65-1.68,1-2.55-1.6-.44-1.58-.42-2.79.61a15.8,15.8,0,0,1-1.51,1,2.46,2.46,0,0,1-3.54-.94c-1.79-3.62-1.36-7.49-1-11.27.31-3.53,1.15-7,1.66-10.54.36-2.52.56-5.05.84-7.63,1,.28,1.52-.54,1.34-1.64l-.8.32c.37-1.18.76-2.13,1-3.11.57-2.69.94-5.42,1.61-8.09s1.56-5.09,2.37-7.62c.47-1.45.92-2.92,1.5-4.32.51-1.23,1.21-2.37,1.78-3.57a4,4,0,0,0,.19-1,3.88,3.88,0,0,0-1.16,0c-1.35.45-2.81.6-4,1.57-.39.32-1.23.05-1.72.32-1,.54-1.89,1.28-2.86,1.89a1.78,1.78,0,0,1-.88.09c-.25,0-.54-.16-.74-.07-1.74.74-3.42,1.94-5.21,2.13-1.16.12-1.9,0-2.27,1.2,0,.06-.16.08-.25.1a21.71,21.71,0,0,0-4.62,1.65,46.83,46.83,0,0,1-6.38,2.38,43.38,43.38,0,0,0-4.42,1.54c-1.78.86-3.34,2.19-5.17,2.89a12.66,12.66,0,0,0-4,2.56c-.72.64-1.39,1.6-2.22,1.77-1.15.24-1.43,1-1.87,1.77A14.36,14.36,0,0,1,173.06,72c-2.05,2.66-2.51,5.76-2.49,9a3.93,3.93,0,0,0,3.6,3.87c.14-1.13.29-2.27.44-3.41.19-1.42,1.49-2.51,1.71-3.62.41-2.12,2-3.11,3.11-4.53a10.17,10.17,0,0,1,2.89-2.06c.62-.37,1.64-.38,2-.89,1.13-1.77,3.29-1.64,4.75-2.87A20.65,20.65,0,0,1,194,64.9c.79-.36,1.7-.44,2.53-.73a4.06,4.06,0,0,0,1.07-.68,5.79,5.79,0,0,0,.86-.79c1.2-1.38,3.29-.91,4.56-2.38C203.83,59.35,205.25,58.87,206.42,58.17ZM99.84,193l.44.42c3.38-.59,6.77-1.15,10.14-1.8.28-.05.56-.73.61-1.15.28-2.5.17-5.08.78-7.49,1.85-7.25,3.78-14.5,6-21.63a214.3,214.3,0,0,1,13.08-32.82c2.13-4.18,2.27-4.2,7-3.93,3.59.21,5.84,2.17,6.27,5.76a17.26,17.26,0,0,1-3.26,12.16c-3.91,5.62-9.56,8.94-15.73,11.5-2.23.92-2.29.94-2.13,3.4a8.12,8.12,0,0,0,.1,1.12,57.2,57.2,0,0,0,6,16.65,54.35,54.35,0,0,0,5.12,7.32,4.69,4.69,0,0,0,5.48,1.39c2.17-.71,4.37-1.31,6.53-2,1.07-.35,2.09-.86,3.35-1.38l-2.16-1.85a51.89,51.89,0,0,1-15.64-22.37c-.37-1-.28-1.53.77-2,5.78-2.72,11-6.24,14.9-11.39,3.42-4.49,5.74-9.37,5.5-15.2a7.87,7.87,0,0,0-6.07-7.63c-3.38-.82-6.68-.07-10,.66-7.35,1.65-14.69,3.39-22.06,5-4.9,1-9.45,2.56-12.68,6.74a23.37,23.37,0,0,0-4,8c-.18.62.3,1.42.48,2.14a17.64,17.64,0,0,0,1.35-1.31,30.66,30.66,0,0,1,3.37-4.06c4.81-4,10.56-6.26,16.39-8.29.59-.21,1.19-.37,1.88-.59C112.93,149.51,105.09,170.84,99.84,193ZM292,46a1.4,1.4,0,0,0-.27-.13.61.61,0,0,0-.28,0c-4.46,1.08-8.33,2.92-10.47,7.38-1.95,4.06-4,8.07-6.15,12-2.35,4.4-4.7,8.82-7.31,13.06a22.56,22.56,0,0,1-4.46,4.8c-1.31,1.15-2.12.73-2.22-1a10.52,10.52,0,0,1,.2-3.47c1.92-6.56,3.93-13.1,6-19.62a2.51,2.51,0,0,1,1.29-1.28c2-.91,4-1.69,6.06-2.55,1.59-.68,2.26-2.09,2.88-3.52L277,51.3l-8.17,3.08c2.42-6.3,5-12.12,9-17.37-.4-.07-.55-.16-.67-.12-3.23,1.15-6.35,2.4-8.52,5.32a56.89,56.89,0,0,0-7,13.64,3.34,3.34,0,0,1-2,2.14c-1.52.58-3,1.26-4.49,1.95a3.86,3.86,0,0,0-2,3.86l5.58-2.19L253.9,73.07l-.33-.26c-.41.25-.95.4-1.2.76a16.36,16.36,0,0,0-1.17,2.22c-2.55,5.14-4.75,10.48-8.53,14.91a29.69,29.69,0,0,1-2.53,2.63c-.34.32-1.07.68-1.32.53a1.81,1.81,0,0,1-.69-1.37,14.57,14.57,0,0,1,.38-3.18c2.12-9,5.78-17.48,10-25.71a6.19,6.19,0,0,0,.29-1.13,8.14,8.14,0,0,0-1,.33c-.24.12-.43.4-.68.46a14.17,14.17,0,0,0-9.14,7.08,4.71,4.71,0,0,1-2.1,1.73c-2.67,1.18-4.67-.13-4.79-3,0-.45,0-.91,0-1.33a5.14,5.14,0,0,0-4.81,1.11c-3.5,2.84-3.4,7.51.25,9.38-1.53,4.71-4.49,9-4,14.38a3.37,3.37,0,0,0,1.23-1.4c1.7-3.83,3.35-7.69,5.06-11.52a4,4,0,0,1,1.2-1.83c1.86-1.09,3.83-2,5.7-2.91-.08.2-.25.61-.41,1-1.1,3-2.32,5.9-3.28,8.91a43.26,43.26,0,0,0-2.19,15.3c.17,3.58,2.44,5,5.41,3.09a26.87,26.87,0,0,0,5.58-5,71.4,71.4,0,0,0,9.38-15.08c.24-.5.6-1.36.87-1.35,1.49.07,1.56-1.24,2.14-2a17.22,17.22,0,0,0,1.2-2.12,26.58,26.58,0,0,1-.52,2.9c-.68,3.43-1.46,6.85-.71,10.38.48,2.23,1.83,3.07,4,2.43a5.45,5.45,0,0,0,1.88-.91,36.36,36.36,0,0,0,4-3.53,69.56,69.56,0,0,0,9-13l1.26-2.21c-.15,2.64-.41,5-.38,7.34,0,3.68,2.4,5.15,5.6,3.35a22.48,22.48,0,0,0,5-4,57.13,57.13,0,0,0,8.89-12.89c1.52-2.83,2.9-5.74,4.26-8.65A2.19,2.19,0,0,0,296,56c-.42.61-.86,1.14-1.18,1.73-1.9,3.43-3.62,7-5.72,10.27a56.29,56.29,0,0,1-5.34,6.64c-.41.47-1.29.54-2,.79a7.43,7.43,0,0,1-.5-2,9.64,9.64,0,0,1,.55-3c2.34-6.18,4.69-12.36,7.16-18.5C289.82,49.84,291,48,292,46Zm25.34,18.7c.21-.4.44-.8.64-1.21a9.91,9.91,0,0,0,1.22-5.8c-.49-3.22-2.83-4.75-5.58-5.9a23.34,23.34,0,0,1-4.59-2.3c-1.89-1.35-2.11-3.36-.86-5.33a9.07,9.07,0,0,1,6.43-4.08,2.14,2.14,0,0,1,1.81.63,2.09,2.09,0,0,1-.31,1.83c-.82,1.13-1.91,2.06-2.74,3.19a2.22,2.22,0,0,0-.35,1.85c.21.46,1,.69,1.64.9a2.05,2.05,0,0,0,1.1-.1,8,8,0,0,0,6-6.35c.81-3.51-.39-5-4-5a18.21,18.21,0,0,0-5,.67c-5.52,1.66-9.79,4.86-11.64,10.56-1.38,4.27-.2,7.18,3.6,9.54,1.07.67,2.16,1.32,3.18,2.06a5.66,5.66,0,0,1,2.32,3.68c.85,4.27-4,9-8.08,9.54-2.29.29-3.52-1-3-3.19a21.09,21.09,0,0,1,1.08-2.86c.43-1,.17-1.5-.94-1.53a5.19,5.19,0,0,0-1.24.17c-3.45.76-5.22,5.24-5,7.64a3.45,3.45,0,0,0,3.18,3.53,9.56,9.56,0,0,0,3.47.16,32.27,32.27,0,0,0,20.46-11.68c2.66-3.31,4.88-7,7.3-10.45.26-.37.72-1,.87-1,1,.39,1.23-.46,1.63-.94.6-.72,1.12-1.51,1.87-2.55-.33,1.2-.58,2-.79,2.89-.78,3.28-1.48,6.59-.74,10A3.34,3.34,0,0,0,334.9,66a13.91,13.91,0,0,0,4.1-2,40.64,40.64,0,0,0,9.39-10.35c1.81-2.72,3.42-5.56,5-8.4a3.54,3.54,0,0,0,.09-3.55,16.5,16.5,0,0,0-1.23,1.44c-1.83,2.77-3.57,5.59-5.47,8.31-1.74,2.5-3.64,4.89-6.53,6.21-1.48.67-2.34.16-2.45-1.47a6.27,6.27,0,0,1,.07-1.4c1.08-6.74,3.83-12.92,6.45-19.14a2.07,2.07,0,0,1,1.32-1c1.63-.35,3.29-.59,5-.79a4.29,4.29,0,0,0,3.91-3.27l-8.2.8a48.43,48.43,0,0,1,8.72-14.33c-3.07.21-6,.39-8.41,2.58a26.12,26.12,0,0,0-6.6,9.82c-1.07,2.75-2.74,4.07-5.53,4.3a4.71,4.71,0,0,0-1.77.35,7.9,7.9,0,0,0-2,1.52c-.29.3-.25.91-.36,1.38a6.4,6.4,0,0,0,1.47.1c1.29-.21,2.57-.5,4.27-.85-1.71,3.44-3.22,6.48-4.75,9.51-.11.22-.46.54-.54.5-1-.52-1.22.44-1.54.95-.84,1.35-1.58,2.75-2.37,4.13C324.2,56.18,321.28,60.85,317.3,64.74Zm101.89-18c-.74-1.44-1.36-.75-2-.12-2,2-4,4.09-6,6.08a10.52,10.52,0,0,1-5.25,3.07c-1.86.37-2.73-.35-2.44-2.24a16.72,16.72,0,0,1,1.1-4A51.24,51.24,0,0,1,414,34.77a6.48,6.48,0,0,0,.54-.86c-1.72-.44-3.29-.82-4.84-1.25a5.39,5.39,0,0,0-5.53,1.51,32.12,32.12,0,0,0-4.22,5.38c-3,4.87-5.07,10.1-5.09,15.92,0,5,3.24,7.41,8.07,6.31a18.3,18.3,0,0,0,7.57-4.1c1.71-1.41,3.31-2.94,5-4.42a3.49,3.49,0,0,1-.42,1.49c-1.14,2.35-2.26,4.71-3.43,7-.55,1.1-.33,1.75.89,2,2,.48,4.08,1,6.11,1.48,1,.26,1.51,0,2-1.07,1.62-3.86,3.31-7.71,5.16-11.46a16.81,16.81,0,0,1,5.88-6.31,7.08,7.08,0,0,1,7.9-.22c1.39,1,1.55,1.56.82,3-.29.58-.64,1.14-.94,1.72-2.07,4-4.43,7.83-5.3,12.29-.6,3-.41,5.9,2.54,8,4.6,3.26,9.16,2.4,13.73.17a1,1,0,0,0,.46-.77c.05-1.11,0-2.21,0-3.33-1.68.4-3.2.82-4.74,1.13-2.28.45-3.68-.8-3.13-3A28.05,28.05,0,0,1,445.06,60c1-2,2.3-3.74,3.35-5.67,1.26-2.3,1-5.32-.54-7a14.21,14.21,0,0,0-9.11-4.47,59.31,59.31,0,0,0-8.17.34,1.24,1.24,0,0,1,0-.48c.43-2.26.24-3-1.73-4a50.05,50.05,0,0,0-5.25-2.26c-1.08-.43-1.56.06-1.56,1.18C422,40.86,420.55,43.63,419.19,46.71ZM345.57,157l2.81-2c.83,2.56.82,2.54,2.88,1.16a1.44,1.44,0,0,1,1.25-.16c.79.5,1.28.24,1.8-.36a5.12,5.12,0,0,1,.84-.67c.59.66,1,1.55,1.56,1.65,2.34.45,4.71,1.06,7.14.42,1-.25,2.13-.8,2.88-.47,2.13.92,4.3.7,6.46.69,7.25,0,14.42.53,21.38,2.78a7.2,7.2,0,0,0,2.61.25,19.47,19.47,0,0,0,4.29-.56,8.71,8.71,0,0,0,3.33-1.81,2.51,2.51,0,0,0,.5-2.35,8.3,8.3,0,0,0-5.92-3.45,50.51,50.51,0,0,1-6.65-.72c-3.12-.67-6-2.21-9.06-3s-5.27-2.77-7.8-4.2a8.81,8.81,0,0,1-4-5.56c0-.17-.09-.43-.21-.48-1.49-.69-1.6-2.19-1.8-3.46s-.87-1.41-1.6-1a31.46,31.46,0,0,0-4.6,2.92c-1.39,1.07-2.58,2.41-3.91,3.56a7.19,7.19,0,0,1-1.5.69,6.74,6.74,0,0,0-1.83,1c-.64.66-1,1.56-1.62,2.27-3,3.52-5.93,7.06-9,10.49A1.69,1.69,0,0,0,345.57,157ZM149.85,169a28.13,28.13,0,0,0,.76,4.94c1.19,3.55,4.28,4.85,8.61,3.95,5.52-1.15,9.75-4.34,13.28-8.55,5.25-6.26,8.83-13.48,11.86-21a14.66,14.66,0,0,0,.58-4c0-.31-.24-.64-.36-1-.33.21-.8.34-1,.64a24,24,0,0,0-1.25,2.65c-2.91,7-6.35,13.62-11.24,19.44-2.09,2.49-4.38,4.75-7.5,5.94-2.93,1.11-4.42.28-5.1-2.75-.74-3.35,0-6.58.88-9.78a1.21,1.21,0,0,1,.88-.62c5.27-.65,9.59-3.2,13.41-6.71,3.22-3,5.89-6.19,6.3-10.85.34-4-2.42-6.6-6.32-5.74a23.67,23.67,0,0,0-10.34,5.62,41,41,0,0,0-10.74,15.51A33.59,33.59,0,0,0,149.85,169ZM374.76,54.61c2.55-4.34,2.21-7.55-1.45-11a49.73,49.73,0,0,0-4.41-3.2,19.82,19.82,0,0,1-3.34-2.72,4.24,4.24,0,0,1-1-2.81c.26-3.29,5.4-5.5,8.15-3.61,1.12.77,1.19,1.42.15,2.34a27.09,27.09,0,0,0-2.32,1.8,2.45,2.45,0,0,0-.7,1.9,2.39,2.39,0,0,0,1.6,1.46,9.68,9.68,0,0,0,4-.39c2.44-.87,3.75-3.23,3.66-6C379,30,377.2,29,375.32,28.49c-5-1.29-9.91-1-14.14,2.54-4.73,4-4.84,10.52.13,14.2a28.33,28.33,0,0,1,4.8,4.48,4.64,4.64,0,0,1,.55,5.73,7.78,7.78,0,0,1-6.6,3.88c-1.28,0-2.7,0-3.48-1.36s-.37-2.79.41-4.09c.26-.43.58-.83,1.1-1.57a8.9,8.9,0,0,0-2.74-1,5.64,5.64,0,0,0-5.28,5.25c-.34,3,1,4.88,3.93,5.72a23.75,23.75,0,0,0,10.14.15c7.25-1.1,13-4.8,17.47-10.47,1.86-2.34,3.73-4.68,5.48-7.11a3.7,3.7,0,0,0,0-4.6C383,45.05,379.89,50.73,374.76,54.61ZM285.51,156.49l1.33-.41c2.69-.91,3.17-.54,3.78,2.14a3.54,3.54,0,0,0,1.77,1.89,5.11,5.11,0,0,0,2.58.46c4.52-.24,9-.52,13.54-.9A3.56,3.56,0,0,0,312,155.9c0-.59-.28-1.18-.34-1.77-.31-3.24-.52-6.49-.89-9.73-.29-2.59-.72-5.16-1.12-7.73-.13-.81-.43-1.45-1.48-1.06q-8.7,3.21-17.41,6.4c-1,.35-1,.9-1,1.92a14.57,14.57,0,0,1-.61,5.32,41.2,41.2,0,0,1-3,5.64C285.94,155.28,285.82,155.71,285.51,156.49Zm-90.1-51.43a29.3,29.3,0,0,0-3.16.41c-1.63.39-3.23.92-4.84,1.37a1.25,1.25,0,0,1-.83,0c-1.48-.85-2,.45-2.77,1.19a8.43,8.43,0,0,0-1,1.34c-3.79,5.72-7.6,11.43-11.35,17.18-1.39,2.13-2.65,4.35-4.08,6.72,2-.56,3.8-1.07,5.58-1.53,3.5-.9,6.62-.19,9,2.64a27.33,27.33,0,0,1,2.42,4.2,8.13,8.13,0,0,0,.3-1.29c.55-6.4,3.69-11.42,8.6-15.28a6.48,6.48,0,0,0,2.7-4.7c.13-1.09.84-2.18.75-3.21C196.41,111.1,195.85,108.08,195.41,105.07Zm-49.93,65,.4-.29c0-11.75,5.26-21.24,12.56-30-1.86.45-4,.38-5.14,2.15a40.57,40.57,0,0,1-10.62,11.26c-2,1.38-4,2.65-6.37,4.16,2.28,3.67,4.49,7.33,6.84,10.91A9,9,0,0,0,145.48,170.06ZM127,148.39l.36.25c1.54-1,3.09-2,4.61-3.09,3.71-2.56,6.68-5.75,7.79-10.23a14.11,14.11,0,0,0,.11-4.78c-.15-1.45-1.52-1.59-2.68-1.75a1.93,1.93,0,0,0-2.4,1.26c-2.37,5.61-4.87,11.18-7.31,16.76A13.94,13.94,0,0,0,127,148.39ZM429.79,69.11c-.8-7.3,1.9-13.44,5.29-19.43a7,7,0,0,0-1.92,1,17.14,17.14,0,0,0-5.6,7.53c-1.37,3.26-2.81,6.49-4.21,9.73Zm-6.3-44.3a8.67,8.67,0,0,0-.85-1.82c-2.37-2.74-5.5-3.6-8.51-1a3.8,3.8,0,0,0-.28,5.78c.77.87,1.51,1,2.33.12a5,5,0,0,1,3.9-1.54,4,4,0,0,0,1.66-.14A10.29,10.29,0,0,0,423.49,24.81Zm-125.59,3.1-.75.18c-3.18.84-6.73,5.4-6.77,8.69,0,.23-.06.53.06.69.42.55.83,1.23,1.41,1.49.29.13,1.11-.43,1.4-.87A13.92,13.92,0,0,1,298.48,33a4.21,4.21,0,0,0,1.67-2.13C300.82,29.15,299.9,28,297.91,27.91ZM406,65.08l-.21.43c2.11,2.16,4,4.43,4.23,7.72l7.12-3.93c-.85-.24-1.51-.44-2.17-.6-2.7-.67-5.51-1-7.46-3.42C407.3,65,406.53,65.14,406,65.08Zm24.42,27.73c-3.09-.68-6-1.34-8.87-1.94a8,8,0,0,0-1.66,0,5.51,5.51,0,0,0,.34,1.85,2.75,2.75,0,0,0,1.46,1.2A11.83,11.83,0,0,0,430.44,92.81ZM410.52,47.62a3.66,3.66,0,0,0,.41-.31c1.84-1.82,3.66-3.67,5.53-5.46,1-1,1.85-3.41,1.39-4.7A23.77,23.77,0,0,0,410.52,47.62ZM241.7,140.15l.25.28c1.66-.79,3.33-1.57,5-2.38.22-.11.54-.44.51-.6-.33-1.42-.72-2.83-1.1-4.25l-.53,0Zm-122.95,32a2.69,2.69,0,0,0,2.94-.87c.6-1,.07-3.48-1.1-4.85Zm48.13-10.53c1.39,0,2.76,0,3.53-1.74Z" transform="translate(-16.53 -12.76)"/><path class="cls-1" d="M214.85,211.38c2.3.19,4.57.31,6.81.6a2.91,2.91,0,0,1,2.59,2.85c.08.69.18,1.39.24,2.08a4,4,0,0,1-1.71,3.88c2.54,1.75,2.27,4.25,2,6.72a3.63,3.63,0,0,1-3.38,3.21c-2.13.22-4.28.26-6.53.39Zm3,17.57c1.36-.32,3.21.67,3.65-.85a9.32,9.32,0,0,0-.1-5.4c-.48-1.34-2.29-.46-3.55-.63Zm0-15.31v6.15c2.37.25,3.2.18,3.34-.71a10.74,10.74,0,0,0,0-4.62C220.7,213,219.06,213.82,217.85,213.64Z" transform="translate(-16.53 -12.76)"/><path class="cls-1" d="M426.79,236.58c-2.31.2-2.45.2-2.54-1.94-.16-3.69-.13-7.39-.16-11.09,0-2.57,0-5.13,0-8l3.21.67a20.6,20.6,0,0,1,3.52-.48,2.93,2.93,0,0,1,3,3.14q.07,4.48,0,9a3,3,0,0,1-3.08,3.21,24,24,0,0,1-3.62-.43Zm4.31-13c0-1.4,0-2.81,0-4.21a1.7,1.7,0,0,0-1.8-1.76c-1.14-.07-2.08.44-2.13,1.56-.12,2.8-.12,5.62,0,8.42.05,1.21,1,1.71,2.23,1.6a1.67,1.67,0,0,0,1.71-1.83C431.11,226.06,431.11,224.8,431.11,223.53Z" transform="translate(-16.53 -12.76)"/><path class="cls-1" d="M411.62,236.59v-21l2.82.54-.05.45a5.25,5.25,0,0,1,4.82-.63,2.66,2.66,0,0,1,2,2.59c0,3-.15,6.08.09,9.1.22,2.77-2.93,4.06-5.33,3.22-.43-.15-.85-.36-1.57-.67v6.42Zm6.84-13.13h0c0-1.31,0-2.61,0-3.92s-.63-2-2-2-2,.55-2,1.92c0,2.61,0,5.22,0,7.84,0,1.31.77,1.89,2.1,1.85a1.72,1.72,0,0,0,1.88-1.93C418.47,226,418.47,224.72,418.47,223.46Z" transform="translate(-16.53 -12.76)"/><path class="cls-1" d="M190,211.76l2.92-.32c0,2.65,0,5.21,0,7.76s-.13,5.24-.18,7.86c0,2.09-.89,3.41-3,3.77a11.9,11.9,0,0,1-4.52-.19,2.94,2.94,0,0,1-2.24-2.9c-.14-5.28-.2-10.57-.28-15.85,0-.08.06-.17.13-.33h2.85c0,1,0,1.92,0,2.84,0,4.07,0,8.14,0,12.21,0,2,.52,2.53,2,2.57,1.68,0,2.25-.55,2.26-2.58,0-4.4,0-8.79,0-13.19C190,212.89,190,212.38,190,211.76Z" transform="translate(-16.53 -12.76)"/><path class="cls-1" d="M362.66,231c-.19,0-.35.11-.46.07-1.93-.68-3.85-.05-5.77,0a3.22,3.22,0,0,1-3.41-3.15c-.09-3-.19-6.07,0-9.08.19-2.81,2.78-3.74,5.62-2.86a9.88,9.88,0,0,1,1.29.65v-6.16h2.71Zm-6.93-7.84h0c0,1.36,0,2.71,0,4.07s.64,2,2,2c1.48,0,2.25-.6,2.3-2,.07-1.82,0-3.65,0-5.47a20.69,20.69,0,0,0-.14-2.65c-.21-1.53-1.39-1.56-2.55-1.46a1.63,1.63,0,0,0-1.6,1.9C355.74,220.69,355.72,221.91,355.72,223.12Z" transform="translate(-16.53 -12.76)"/><path class="cls-1" d="M259.08,230.79c-2.46.45-3,.19-3.83-1.85-.78-1.83-1.58-3.65-2.5-5.76-2.34,2.44-.68,5.29-1.47,7.78h-2.73V210.43h2.91v10.81l.33.11c1.11-1.45,2.32-2.84,3.3-4.38s2.06-1.5,3.66-1c-1.06,1.41-2,2.8-3.08,4a2.09,2.09,0,0,0-.29,2.72C256.68,225.34,257.85,228.07,259.08,230.79Z" transform="translate(-16.53 -12.76)"/><path class="cls-1" d="M373.55,211.7h4.1l3.51,18.84c-1.93,1-2.6.68-2.95-1.11-.21-1.09-.37-2.19-.56-3.34-.35,0-.66-.08-1-.08-3.23,0-3.23,0-3.52,3.13-.15,1.64-.51,1.93-2.21,1.84-.8,0-.87-.43-.74-1.12q1.67-8.53,3.28-17.08A9.94,9.94,0,0,0,373.55,211.7Zm2,2.3-.26.13c-.13,1.13-.27,2.26-.39,3.4-.2,1.82-.46,3.65-.58,5.48a1.22,1.22,0,0,0,1.62,1.34,6.35,6.35,0,0,0,1.72-.92,12.51,12.51,0,0,1-.49-1.59c-.31-2.11-.55-4.23-.9-6.34A5.76,5.76,0,0,0,375.52,214Z" transform="translate(-16.53 -12.76)"/><path class="cls-1" d="M237.2,224h-7.09a20.66,20.66,0,0,0,.06,3.67,2.3,2.3,0,0,0,1.39,1.43,1.87,1.87,0,0,0,2.47-1c.81-2,.79-2,3-1.6.09,2.71-1.5,4.48-4.14,4.54a10.42,10.42,0,0,1-2.76-.21c-2-.51-2.72-1.35-2.78-3.43-.07-2.79,0-5.59,0-8.39A3,3,0,0,1,229,216.3c1.56-1,5.36-1.17,7.14.87a2.42,2.42,0,0,1,.67,1.17C237,220.16,237.08,222,237.2,224Zm-3.1-1.92c-.08-1.6.6-3.3-1-4.32a2.44,2.44,0,0,0-2.21.16c-1.49,1.08-.54,2.7-.79,4.16Z" transform="translate(-16.53 -12.76)"/><path class="cls-1" d="M329.92,223.38c-.12,1.66-.18,3.2-.35,4.73a3.14,3.14,0,0,1-2.91,2.79,11,11,0,0,1-4.13-.21,3.05,3.05,0,0,1-2.44-3.3c0-2.75-.11-5.5,0-8.25a3.35,3.35,0,0,1,3.21-3.41,10.34,10.34,0,0,1,3.08,0c2.16.33,3.1,1.53,3.22,3.71C329.68,220.79,329.82,222.14,329.92,223.38Zm-7.08-.16h0c0,1.4,0,2.8,0,4.2,0,1.18.75,1.72,1.92,1.74s2-.46,2-1.62c.09-2.8.1-5.61,0-8.4,0-1.25-1-1.67-2.21-1.58s-1.75.58-1.76,1.74S322.84,221.92,322.84,223.22Z" transform="translate(-16.53 -12.76)"/><path class="cls-1" d="M270.35,223.91h-7.06c0,1.32-.09,2.66,0,4,.09,1,.87,1.27,1.84,1.28s1.84-.29,2.11-1.39a7.71,7.71,0,0,0,.09-1.29,2.37,2.37,0,0,1,.71-.14c.71.1,1.41.25,2.12.39a8.38,8.38,0,0,1-.67,2.6c-1.52,2.31-6.79,2.45-8.33.14a7,7,0,0,1-.82-3.59,56.93,56.93,0,0,1,.27-7.56,3.53,3.53,0,0,1,1.66-2.06,5.65,5.65,0,0,1,4.88-.39c2.3.78,3.07,1.85,2.94,3.69A31.5,31.5,0,0,0,270.35,223.91Zm-3-1.82c-.24-1.59.63-3.34-1.13-4.27A2.44,2.44,0,0,0,264,218c-1.38,1.11-.53,2.7-.72,4.14Z" transform="translate(-16.53 -12.76)"/><path class="cls-1" d="M446.47,223.72l-6.73.35c0,1.15,0,2.26,0,3.37a1.53,1.53,0,0,0,1.71,1.74c1.21,0,2.14-.22,2.3-1.62,0-.32,0-.65.08-1.09h2.76a3.47,3.47,0,0,1-2,4.06,6.87,6.87,0,0,1-5.57,0,2.9,2.9,0,0,1-2-2.79c0-2.85-.06-5.7,0-8.54a3.39,3.39,0,0,1,3.1-3.5,10.58,10.58,0,0,1,3.22,0c2.06.35,3.08,1.65,3.2,3.79,0,.7.09,1.4.08,2.1S446.52,222.93,446.47,223.72Zm-2.65-1.63c-.26-1.58.56-3.32-1.08-4.33a2.46,2.46,0,0,0-2.21.17c-1.48,1.08-.54,2.7-.78,4.16Z" transform="translate(-16.53 -12.76)"/><path class="cls-1" d="M317.44,225.32c.12,1.91.37,3.8-1.55,4.94a6.31,6.31,0,0,1-6.29.13,2.72,2.72,0,0,1-1.59-2.6c0-4.4,0-8.79,0-13.19a3.21,3.21,0,0,1,2.8-3,11.45,11.45,0,0,1,3.63,0,3.6,3.6,0,0,1,3,3.67c0,.6,0,1.21,0,2a12.93,12.93,0,0,0-1.39,0c-.93.11-1.42-.17-1.35-1.21a7.77,7.77,0,0,0-.21-1.37c-.17-1.48-1.24-1.4-2.3-1.36s-1.46.8-1.46,1.7q-.06,6.18,0,12.36c0,.87.29,1.7,1.4,1.75s2.14.2,2.33-1.3c.11-.82.28-1.63.44-2.54Z" transform="translate(-16.53 -12.76)"/><path class="cls-1" d="M205.65,217.29a10.58,10.58,0,0,0-1.28,0c-1.1.15-1.44-.29-1.46-1.4,0-2.1-.55-2.52-2.25-2.57a1.46,1.46,0,0,0-1.69,1.59q-.09,6.31,0,12.63a1.45,1.45,0,0,0,1.53,1.64c1,0,2,.1,2.22-1.3.11-.82.27-1.64.42-2.55h2.34c.6,2.18,0,4.37-1.53,5.14-2.29,1.18-5.73.83-7-.83a3.41,3.41,0,0,1-.69-1.91c-.06-4.25-.06-8.5,0-12.76,0-1.71.72-2.86,2.38-3.17a12.75,12.75,0,0,1,4.78.05,3.06,3.06,0,0,1,2.29,3C205.7,215.62,205.65,216.37,205.65,217.29Z" transform="translate(-16.53 -12.76)"/><path class="cls-1" d="M288.34,223.91h-7a34.82,34.82,0,0,0,0,4.1c.13,1.11,1.11,1.17,2.07,1.17a1.69,1.69,0,0,0,1.85-1.35,6.87,6.87,0,0,0,.09-1.3,1.94,1.94,0,0,1,.68-.16c.74.13,1.47.31,2.21.47a8.68,8.68,0,0,1-.7,2.49c-1.5,2.3-6.69,2.42-8.37.22a3.23,3.23,0,0,1-.61-1.79c-.05-3-.1-6,0-9a3.24,3.24,0,0,1,1.2-2.2,6,6,0,0,1,6-.47,3.25,3.25,0,0,1,2.29,3.45A32.1,32.1,0,0,0,288.34,223.91Zm-3.07-1.83c-.18-1.52.65-3.2-.84-4.21a2.65,2.65,0,0,0-2.45,0c-1.44,1.07-.44,2.72-.72,4.18Z" transform="translate(-16.53 -12.76)"/><path class="cls-1" d="M399.14,219.93c.32-4.4,4.44-4.92,7.21-3.86a3.25,3.25,0,0,1,1.83,2.19c.29,4.05.32,8.13.43,12.19a4.2,4.2,0,0,1-.21.76l-3-.92a14.76,14.76,0,0,1-2.88.74,3.38,3.38,0,0,1-3.61-2.31,3.73,3.73,0,0,1,1.26-4.39c1.33-.94,2.8-1.67,4.21-2.48a2.5,2.5,0,0,0,1.24-3,1.48,1.48,0,0,0-1.64-1.34,1.73,1.73,0,0,0-1.87,1.34C401.62,220.56,401,220.82,399.14,219.93Zm6.4,3.31c-1.31.88-2.57,1.36-3.21,2.27a4.11,4.11,0,0,0-.24,3c.08.36,1.35.7,2,.61,1.13-.16,1.49-1.09,1.44-2.21S405.54,224.72,405.54,223.24Z" transform="translate(-16.53 -12.76)"/><path class="cls-1" d="M469.56,231.28l-2.95-1.09a9,9,0,0,1-2,.82,3.8,3.8,0,0,1-4.46-2.28,4.21,4.21,0,0,1,1.85-4.87c1.2-.73,2.46-1.34,3.67-2a2.5,2.5,0,0,0,1.24-3c-.21-.92-.78-1.51-1.66-1.29a4.12,4.12,0,0,0-1.8,1.23c-.36.38-.35,1.33-.7,1.45a7.18,7.18,0,0,1-2.27.07c.11-4.49,3.92-5.35,7-4.33a2.86,2.86,0,0,1,2.09,2.85C469.56,222.84,469.56,226.85,469.56,231.28Zm-2.77-8c-1.59,1-3.3,1.41-3.81,3.14a2.54,2.54,0,0,0,.43,2.14,2.58,2.58,0,0,0,2.14.44,2.1,2.1,0,0,0,1.19-1.49A33.27,33.27,0,0,0,466.79,223.31Z" transform="translate(-16.53 -12.76)"/><path class="cls-1" d="M350.38,223.72l-6.73.35a17.63,17.63,0,0,0,.07,3.5,2.48,2.48,0,0,0,1.44,1.52,1.83,1.83,0,0,0,2.44-1.06c.7-1.81.67-1.83,2.92-1.59.09,3-1.35,4.59-4.38,4.59a9.9,9.9,0,0,1-3-.38,2.89,2.89,0,0,1-2.23-2.88c0-3-.16-6,0-9a3.93,3.93,0,0,1,1.69-2.5,6.09,6.09,0,0,1,7.11.9,2.26,2.26,0,0,1,.64,1.32C350.43,220.22,350.38,221.9,350.38,223.72Zm-2.73-1.54a21.28,21.28,0,0,0,0-3.47c-.29-1.65-1.86-1.1-2.89-1.26-.34-.05-1,.95-1.25,1.56s.08,1.16-.12,1.64c-.42,1,.21,1.4.91,1.5A26.33,26.33,0,0,0,347.65,222.18Z" transform="translate(-16.53 -12.76)"/><path class="cls-1" d="M289.72,216a2.42,2.42,0,0,1,.63-.19c.65,0,1.3.08,2.11.14l2,11.32h.35c.37-2.09.75-4.18,1.11-6.27.21-1.24.4-2.48.6-3.71.26-1.6,1.14-2,3.18-1.23-.84,3.43-1.65,6.9-2.54,10.35-.65,2.52-1.4,5-2.12,7.51a4.24,4.24,0,0,1-4.65,2.7,1.19,1.19,0,0,1-.61-1,1.49,1.49,0,0,1,.73-1.09c2.07-.63,3-2,2.47-4.05-1-4.43-2.09-8.85-3.12-13.28C289.81,216.82,289.78,216.41,289.72,216Z" transform="translate(-16.53 -12.76)"/><path class="cls-1" d="M397.26,220.29h-2.91c0-.49,0-.9-.07-1.31-.08-1-.71-1.41-1.69-1.44s-1.7.36-1.72,1.38c-.05,2.94,0,5.89,0,8.83,0,1.23.84,1.48,1.93,1.44s1.52-.55,1.51-1.57c0-.37,0-.73,0-1.18h2.83c.39,2.21-.48,3.87-2.62,4.31a10.67,10.67,0,0,1-4.24-.06,2.72,2.72,0,0,1-2.18-2.88c0-3,0-6.06,0-9.09a2.36,2.36,0,0,1,1.78-2.55,12.84,12.84,0,0,1,4.51-.31C396.43,216.2,397.15,217.59,397.26,220.29Z" transform="translate(-16.53 -12.76)"/><path class="cls-1" d="M458.22,231h-2.87V210.41h2.87Z" transform="translate(-16.53 -12.76)"/><path class="cls-1" d="M449.48,210.39h2.82v20.56h-2.82Z" transform="translate(-16.53 -12.76)"/><path class="cls-1" d="M275.41,231H272.7V210.34l2.71.28Z" transform="translate(-16.53 -12.76)"/><path class="cls-1" d="M239.87,215.81c2.46-.34,2.71-.24,3,1.23.94-.45,1.85-1,2.82-1.33.62-.24,1.23-.13,1.28.76,0,.7,0,1.27-.95,1.39-2.62.34-3.25,1.08-3.25,3.69,0,3.09,0,6.18,0,9.38h-2.9Z" transform="translate(-16.53 -12.76)"/><path class="cls-1" d="M337.91,224h-5.33v-2.3h5.33Z" transform="translate(-16.53 -12.76)"/><path class="cls-1" d="M240.56,126.17c-1.61,3.11-3.33,6.83-5.41,10.34a30.94,30.94,0,0,1-4.55,5.44,6.27,6.27,0,0,1-2.7,1.39c-1.74.51-2.78-.26-3-2.07-.45-3.09.28-6,1.14-9,1.88-6.34,4.28-12.46,8.53-17.63a21,21,0,0,1,4.57-4.06,2.18,2.18,0,0,1,3.51.93,1.21,1.21,0,0,1-.6,1.81,7.82,7.82,0,0,0-3.94,8.82C238.39,123.42,239.47,124.48,240.56,126.17Z" transform="translate(-16.53 -12.76)"/><path class="cls-1" d="M302.7,104.12a29.39,29.39,0,0,1,2.81-10.05,47.39,47.39,0,0,1,7.59-11.86,12.53,12.53,0,0,1,6.06-3.82,4.78,4.78,0,0,1,2.62.29c.66.23.83.91.43,1.63-3.75,6.77-7.07,13.8-11.83,20a30.24,30.24,0,0,1-5.3,5.12C303.72,106.43,302.68,105.68,302.7,104.12Z" transform="translate(-16.53 -12.76)"/><path class="cls-1" d="M425,85c-1.48-.48-3-.85-4.44-1.46-1.11-.47-1.19-1.42-.6-2.46,1.78-3.12,7.29-5.38,10.75-4.39,2.52.72,3.25,3.09,1.51,5.08C430.31,83.89,427.81,84.6,425,85Z" transform="translate(-16.53 -12.76)"/><path class="cls-1" d="M187.61,95a6.14,6.14,0,0,0,1-1.36c.64-1.62,1.3-3.19,3.05-3.94.14-.06.12-.41.24-.59.62-.94,1.29-1.86,1.89-2.82.29-.46.36-1.08.69-1.5,1.82-2.37,3.72-4.69,5.52-7.07a17.21,17.21,0,0,0,1.29-2.38l.39.7c.88-1.66,1.12-3.59,2.72-4.71-.07,1.41.28,2.9-.28,3.86-1.33,2.28-.42,4.94-1.45,7.09s-.55,4.31-1.27,6.36c-.13.36-.24.87-.51,1-2.75,1.37-5.52,2.73-8.33,4-1.5.68-3.09,1.16-4.63,1.73Z" transform="translate(-16.53 -12.76)"/><path class="cls-1" d="M175,140.64c-.64,1.63-1.16,3.32-1.93,4.88a20.32,20.32,0,0,1-6.64,8,12.73,12.73,0,0,1-3.58,1.4c-.76.22-1.12-.28-1-1.05a4.77,4.77,0,0,1,.29-1.21,34,34,0,0,1,9-12.46,6.26,6.26,0,0,1,1.68-1C174.17,138.66,174.77,139.1,175,140.64Z" transform="translate(-16.53 -12.76)"/></svg>