<svg id="more_edited" data-name="more edited" xmlns="http://www.w3.org/2000/svg" viewBox="0 0 387.83 223.41"><defs><style>.cls-1{fill:#fff;}</style></defs><title>air_logo</title><path class="cls-1" d="M295.58,139.29a6.31,6.31,0,0,0-2.88,1.6c-4.11,3.58-6.63,8.24-8.75,13.14a47.64,47.64,0,0,0-4.34,16c.05.34.13.92.22,1.49.31,1.91,1.43,2.68,3.28,2.16a9.92,9.92,0,0,0,5-3.53c3.45-4.29,5.75-9.21,7.81-14.26.28-.69.12-1-.46-1.38a4.46,4.46,0,0,1-1.91-2.81,8.28,8.28,0,0,1,4.15-9.11,1.28,1.28,0,0,0,.65-1.87A2.2,2.2,0,0,0,295.58,139.29Z" transform="translate(-130.33 -38.29)"/><path class="cls-1" d="M378.11,106.12a13.68,13.68,0,0,0-6.82,4.13,49.38,49.38,0,0,0-8.83,14.53,29.75,29.75,0,0,0-2,8c0,1.94.88,2.5,2.49,1.66a16.12,16.12,0,0,0,5-4.6C373,123.42,376.5,116,380.45,109c.34-.6,1-1.28.26-2.06A2.5,2.5,0,0,0,378.11,106.12Z" transform="translate(-130.33 -38.29)"/><path class="cls-1" d="M482.47,111.65A9.72,9.72,0,0,0,488,112.9a9.08,9.08,0,0,0,6.85-3.14c1.73-2.06,1-4.39-1.55-5.21-3.62-1.16-9.55,1.26-11.37,4.62A1.65,1.65,0,0,0,482.47,111.65Z" transform="translate(-130.33 -38.29)"/><path class="cls-1" d="M259.53,182.37l.37-.36-.23-.21C259.49,182,259.33,182.11,259.53,182.37Z" transform="translate(-130.33 -38.29)"/><path class="cls-1" d="M326.23,127.5c.24.11.23-.14.3-.27l-.25-.22C326.26,127.18,326.18,127.48,326.23,127.5Z" transform="translate(-130.33 -38.29)"/><path class="cls-1" d="M215.65,185.72a6.81,6.81,0,0,0,3.72-1.44,23.89,23.89,0,0,0,7.48-9.43,11.92,11.92,0,0,0,1.17-3.64c.05-2-.66-2.54-2.24-1.85a6.51,6.51,0,0,0-1.59,1,35.52,35.52,0,0,0-9.38,13,4.74,4.74,0,0,0-.27,1.12C214.4,185.36,214.75,185.76,215.65,185.72Z" transform="translate(-130.33 -38.29)"/><path class="cls-1" d="M435.06,81.8l-.14-.12c0,.08,0,.16,0,.24Z" transform="translate(-130.33 -38.29)"/><path class="cls-1" d="M242.4,123.37l13-5.51a.29.29,0,0,0,.17-.22l3-17.3a.29.29,0,0,0-.52-.22l-16,22.81A.29.29,0,0,0,242.4,123.37Z" transform="translate(-130.33 -38.29)"/><path class="cls-1" d="M514.31,103.63c1.56-.73,3.24-1.59,3.51-3.38.37-2.46.65-5-.31-7.43a3.29,3.29,0,0,0-1-1.19,4.4,4.4,0,0,0-5.28-.54,3.19,3.19,0,0,1,.64-1.55,60.1,60.1,0,0,0,4-7.68c1.73-4.73.91-8.54-2.88-11.75a23.05,23.05,0,0,0-13.38-5.25c-1.54-.12-3,.11-3.93-1.63a5.39,5.39,0,0,0-2.42-1.8,36.48,36.48,0,0,0-6-2.5c-2.32-.75-4.45-.82-6.31,1-1.13-2.34-.56-3.28,1.92-3.29.2,0,.39,0,.58,0,3.48.25,7.31-3,5.79-8.07-1.38-4.58-7-7.51-11.61-6.2-5.66,1.62-8.5,5.78-6.9,11.18.25.86-.22.72-.71.76a12.74,12.74,0,0,0-9.46,5,48.26,48.26,0,0,0-7.74,15.43c-.36,1.2-.63,2.42-1,3.73-1.93-2-1.93-2-.6-4.06a11.16,11.16,0,0,0,1.89-6.85,4.78,4.78,0,0,0-2.86-4.37,4.65,4.65,0,0,0-5.14.65A14.52,14.52,0,0,0,442,67.32c-.17.27-.31.68-.76.41a.58.58,0,0,1-.15-1c.3-.38.61-.75.88-1.15,2.91-4.32,3.4-12.39-4.47-14.86a20.34,20.34,0,0,0-17.6,2.14c-1.3.81-2.39,1.58-3.75.21a2.23,2.23,0,0,0-.9-.44c-1.83-.53-1.82-.51-.7-2.19a37.29,37.29,0,0,1,3.34-4.2c2.55-2.85,1.5-7-2-7.87-1.27-.33-2.49.17-3.74.23A14.54,14.54,0,0,0,402,43.41,35.71,35.71,0,0,0,397.59,49l-.18.26-1.62,5.43-8.38,1.44-2.24,5.14S367,54.68,360.36,63.47a12.26,12.26,0,0,0,0-12.32,6.77,6.77,0,0,0-5.57-1.33c-3.3.46-5.63,2.36-7.86,4.55a2.32,2.32,0,0,1-1.39.85l-2.75,4.62s-5.75-2.06-10.5-1.06-6.08,2.25-10,6.8-8.75,15.2-8.75,15.2l-15,6c-4.37,1.74-9.16,6.29-9.46,6.58.15-.24,2.24-3.63-1.29-5.08s-13.5,8.25-13.5,8.25,9.75-28.75,8-28.5c-1.41-.19-43.77,16.5-49.75,20.25s-11,7.25-12.8,17.73,10.8,12.77,10.8,12.77A29.59,29.59,0,0,1,235,105.06c4.26-6.45,13-6.85,13-6.85l-38.75,55s-1.5-5.91-5.25-7.82c-1.81-.92-7.29-1.56-15.79.51s-23.19,5.21-25.47,5.74c-4.08,1-8,2.16-11.05,5.28-3.86,4-6.62,8.54-7.37,14.12-.36,2.69.9,4.93,3,5.64,2.72.92,5.19.14,6.49-2.28,2.34-4.33,6.32-6.48,10.58-8.33h0l.08,0,.15-.09h0l0,.14,0-.14-.23.14.31.24c-1.71,4.64-3.49,9.27-5.13,13.94-3.1,8.84-6.24,17.67-8.94,26.64-.06.23,0,.76-.24.86l-5.55,19.5a3.11,3.11,0,0,1,2.52,1.68,47.7,47.7,0,0,1-10.3.94c-.6,0-4.6-.1-5.69,1.22s-1.1,1.32-1.1,3.22V257a7.39,7.39,0,0,0,1.17,3.33c1,1.32,3.26,1.22,3.83,1.23a128.5,128.5,0,0,0,16.87-.49,150.77,150.77,0,0,0,18.91-3.06A201.62,201.62,0,0,0,219,240.2c7.61-3.94,15.1-8.1,22.65-12.15a3,3,0,0,1,1.48-.52s80.44-45.58,104.9-55.16c2.25-.92,4.52-1.79,6.79-2.64l.54-.2c24.93-9.57,61.66-22.62,79.48-24.47,19.42-2,22.15-1,41.32.64a4.94,4.94,0,0,1,.7.06c.24,0,.49,0,.73,0a119,119,0,0,1,19.12,4.27c4.77,1.48,9.43,3.26,14.18,4.8,3,1,5.13-.32,5.94-3.32.51-1.86.21-3.75.24-5.63a4.51,4.51,0,0,0-2.86-4.47,170.43,170.43,0,0,0-16.69-6.85c-.57-.19-1.31-.21-1.74-.93a45,45,0,0,0,7-4.23,21.29,21.29,0,0,0,6.07-6c2.61-4.14,1.34-8.58-2.92-10.54a1,1,0,0,1-.65-1,16.83,16.83,0,0,0-1.42-6.3h2A18.91,18.91,0,0,0,514.31,103.63Zm-34-57.3a6.82,6.82,0,0,1,4.56,2.8c1.08,1.67.36,3.12-1.63,3.17s-4.13.32-5.64,2.06a.93.93,0,0,1-1.42,0A4.87,4.87,0,0,1,474.47,51C474.5,48.56,477.91,45.8,480.35,46.33Zm-.25,17.13c0,2.14-.42,3.95-1.86,5a28,28,0,0,0-5.48,5.5.78.78,0,0,1-.81.41A29.55,29.55,0,0,1,480.1,63.46ZM416.86,78.83c.68.48.83.87.25,1.61A4.28,4.28,0,0,0,416,84.6a2.54,2.54,0,0,0,1.9,1.78A8.23,8.23,0,0,0,427.16,82a5.39,5.39,0,0,0-.75-5.35,21.1,21.1,0,0,0-4.29-4.1,24,24,0,0,1-2.59-2.33,8.75,8.75,0,0,1,.31-11.64c4.09-4.72,10.32-5.42,15.85-4,1.86.49,3.72,1.4,4,3.71a6.19,6.19,0,0,1-3.1,6.26,7.06,7.06,0,0,1-4.77.71,1.91,1.91,0,0,1-1.65-1.45,1.74,1.74,0,0,1,.72-2c.86-.63,1.76-1.21,2.55-1.92,1-.9.93-1.58-.12-2.36-2-1.46-6.08-.63-7.87,1.6-1.47,1.83-1,4.18,1.14,6.14a13.89,13.89,0,0,0,2.62,1.81,20.64,20.64,0,0,1,5.4,4.12,7.7,7.7,0,0,1,.34,10.41h0l0,0h0c.6.41.81-.24,1.11-.48,3-2.4,5.23-5.56,7.57-8.59,1.27-1.65,2.5-3.33,3.76-5,.23-.29.48-.76.89-.6s.43.59.46,1a5.5,5.5,0,0,1-.87,3.71,63.48,63.48,0,0,1-11,12.56c-3.88,3.35-8.64,4.81-13.61,5.56a22.56,22.56,0,0,1-9.64-.27c-3.06-.87-4.34-2.92-3.94-6.15a6,6,0,0,1,5.44-5.18A2.62,2.62,0,0,1,416.86,78.83ZM359.93,101c4.06-.63,8-4.25,8.48-7.86a5.77,5.77,0,0,0-2.44-6c-1.06-.76-2.18-1.43-3.29-2.12-3.9-2.43-5.08-5.34-3.69-9.75,1.87-5.92,6.32-9.15,12-11a15.48,15.48,0,0,1,5.29-.7c3.32.1,4.11.89,4,4.16-.08,3.78-3.79,7.62-7.39,7.62-.72,0-1.43,0-1.78-.87a1.72,1.72,0,0,1,.43-2c1-1.07,2-2.12,2.89-3.26.41-.53.93-1.18.39-2a1.87,1.87,0,0,0-2.08-.67A9.7,9.7,0,0,0,366,71a4,4,0,0,0,.85,5.45,14.34,14.34,0,0,0,4.74,2.4c2.94,1.08,5.41,2.73,5.9,6.14a10.3,10.3,0,0,1-1.29,6l-.69,1.42h0c-.15,0-.27.16-.14.27s.19-.05.21-.18l0-.06,0,.06A43.28,43.28,0,0,0,382.32,84c2-3.07,3.76-4.8,6.29-8.7A87.09,87.09,0,0,0,395,62.8a29.29,29.29,0,0,0-4.38.77c-.46.08-1,.34-1.36-.12s.11-.89.3-1.31a2.62,2.62,0,0,1,2.2-1.66c.62-.08,1.22-.29,1.84-.33,2.92-.21,4.62-1.66,5.69-4.48a29.06,29.06,0,0,1,5.78-9.15,10.67,10.67,0,0,1,7.25-3.5c.78-.07,1.54-.58,2.5-.13a47.44,47.44,0,0,0-5.47,7.32c-1.15,2.11-2.26,4.24-3.26,6.43-.35.77-.25,1.07.65,1,2.16-.24,4.33-.46,6.49-.65.3,0,.74-.23.91.16s-.2.6-.36.89c-1.18,2.21-3.42,2-5.41,2.42-.9.16-1.82.22-2.72.34a2.52,2.52,0,0,0-2.26,1.68c-2.27,5.66-4.69,11.28-6,17.27a11.73,11.73,0,0,0-.43,3.87c.16,1.48,1.05,2,2.44,1.37,3.18-1.36,5.19-4,7.07-6.69s3.75-5.75,5.64-8.61c.27-.41.51-1.17,1.1-1s.35,1,.34,1.53a3.85,3.85,0,0,1-.41,1.67c-3.79,7.44-8.44,14.22-15,19.56a10.23,10.23,0,0,1-4.25,2.1,3.49,3.49,0,0,1-4.58-2.78c-.78-3.5,0-6.92.75-10.32.18-.8.42-1.57.64-2.36h0a.48.48,0,0,0,0-.59l-.22.42h0a10.61,10.61,0,0,1-1.2,1.59c-.62.58-9.07,12.3-13.2,16.25a34.39,34.39,0,0,1-18.67,9.21,7.94,7.94,0,0,1-3.32-.12c-2.25-.61-3.17-1.51-3.37-3.76-.21-2.46,1.52-7,5.23-7.84a4.72,4.72,0,0,1,1.29-.13c1,.07,1.31.55.83,1.46a11.69,11.69,0,0,0-1.21,3.08C356.35,99.89,357.66,101.3,359.93,101Zm-5.06-46.7a2.49,2.49,0,0,1,2.79.61,2.57,2.57,0,0,1-.07,2.88,3.61,3.61,0,0,1-1.6,1.61,12.4,12.4,0,0,0-5,4.74c-.46.69-.63,1.88-2,1.36-.9-.34-1.24-1-1.2-2.37C348,59.7,351.62,55.11,354.87,54.25Zm-76.6,60.49a74.51,74.51,0,0,1,3-7.36c.4-.84.57-1.48-.62-1.81a2.51,2.51,0,0,1-1.55-1.64c-1.59-3.72,1.88-8.86,6-8.86.88,0,1.31.14,1.26,1.19-.09,1.53.06,3.08,1.81,3.75A4.73,4.73,0,0,0,293,98.7,10.56,10.56,0,0,0,294.18,97,13.13,13.13,0,0,1,302,91c.57-.18,2.18-1.14,2.45-.91s.09.59-.07.89A133.19,133.19,0,0,0,295.16,113a43.48,43.48,0,0,0-1.57,6.75,2.69,2.69,0,0,0,0,.28c0,.88-.15,1.94.67,2.35s1.49-.47,2.06-1c3.64-3.51,7.52-10,9.7-13.83s7.42-14.45,8.83-18.63l-4.69,1.87c-.34.14-.73.48-1,.11s0-.71.12-1.07A3.89,3.89,0,0,1,311.86,87c4.24-1,6.39-3.83,7.81-7.88a30.62,30.62,0,0,1,7.2-12c1.6-1.58,6-3.68,7.84-3.7-4.19,5.44-6.87,11.53-9.41,18.13,2.62-1,4.87-1.91,7.14-2.77.47-.18,1.1-.64,1.47-.18s-.25.95-.48,1.41a5.82,5.82,0,0,1-3.37,2.8c-1.79.7-3.57,1.44-5.36,2.15a1.94,1.94,0,0,0-1.25,1.26c-2.34,6.72-4.76,13.42-6.21,20.42a10.17,10.17,0,0,0-.17,3.89c.27,1.42.89,1.79,2.08,1a19.34,19.34,0,0,0,5-5.19c2.62-3.73,4.3-8,6.67-11.85,2.82-4.62,4.83-9.61,7.3-14.39,2.38-4.61,6.41-6.54,11.49-7.5a60,60,0,0,0-5,9.82A103.79,103.79,0,0,0,338.85,98c-.26,1-.4,2.08-.6,3.12-.15.79-.2,1.64.57,2.09s1.49-.17,2-.66a29.72,29.72,0,0,0,5.67-7c2.15-3.5,3.91-7.21,5.93-10.78.32-.57.56-1.68,1.35-1.39s.6,1.43.46,2.23a5.94,5.94,0,0,1-.53,1.64c-3.74,7.5-7.61,14.9-13.32,21.15a18.2,18.2,0,0,1-4.66,3.91c-3.59,2-6.06.5-6.13-3.59a56.51,56.51,0,0,1,.59-7.41,4.51,4.51,0,0,0-1.17,1.68,80.29,80.29,0,0,1-9.6,14.13,19.5,19.5,0,0,1-3.87,3.5c-1.49,1-3.12,1.88-4.86,1s-1.67-2.82-1.75-4.5a36.69,36.69,0,0,1,1.27-9.72c.11-.47.21-.94.31-1.41h0c.1-.22.28-.44,0-.65l-.16.48h0c-.51.86-1,1.76-1.56,2.56-.43.56-7.79,12.38-11,16.74a36.71,36.71,0,0,1-4.11,4.7,16.37,16.37,0,0,1-2.63,2c-4,2.56-5.86.06-6-3.36-.26-8.69,2.24-16.75,5.62-24.61.21-.49.38-1,.57-1.48h0c.18-.08.28-.2.1-.36,0,0-.18.12-.28.18l.09.09-.09-.09c-1.77,1.41-3.48,2.9-5.81,3.4-.65.14-.84.88-1.09,1.45-1.55,3.53-3.07,7.06-4.62,10.58-.43,1-.91,1.91-1.4,2.85-.12.25-.31.53-.67.43s-.26-.46-.28-.73A13.65,13.65,0,0,1,278.27,114.74ZM205.8,166.06c.71-1.59,32.65-45.72,34.5-48.69.55-.87,19.43-28.17,20-30.22.05-.17,1.07-1.29.63-1.72s-21.51,10.75-25.12,13.45-8,9-8.4,13.3c-.44,1.16-.44,1.16-1.26.7a4.5,4.5,0,0,1-2.5-3.87,15.69,15.69,0,0,1,2.58-9.28,16.24,16.24,0,0,1,5.29-5.49c1.35-.87,2.64-1.79,4-2.62,1.81-1.07,8.66-4,10.22-4.63,2.19-.83,28.87-11,30.06-11.69.29-.16.61-.32.91,0s-5.15,13-6.46,19.24-3,13.51-3.87,18.7-1.33,7-1.58,10.62c-.26,3.75-.57,7.51.61,11.2.79,2.44,2.56,2.94,4.65,1.33a5.88,5.88,0,0,0,1.77-1.44c.41-.65,1.16,0,1.74.1.79.12-2.39,3.76-2.63,4a35.14,35.14,0,0,1-8.63,6.55c-2.47,1.33-4.86.61-6.68-1.46s-1.79-4.55-1.92-6.93c-.2-3.47.14-11.78.65-12.92-1.42,1.15-16.82,7.52-17.54,7.59a3.21,3.21,0,0,0-2.45,1.95c-1.36,2.25-2.94,4.35-4.38,6.54-2.52,3.8-5.08,7.59-7.44,11.48-2,3.33-7.88,11.94-9.32,13.38s-6,1.18-6.92,1.72c-.22.13-.63.16-.78-.12S205.68,166.33,205.8,166.06Zm-3.38,34.66a32.62,32.62,0,0,1,3-14,42,42,0,0,1,10.57-15,24.49,24.49,0,0,1,10.8-5.93c4-.88,6.85,1.66,6.54,5.75a14,14,0,0,1-3.71,8.45c-3.61,4.07-7.75,7.43-13.07,9a34.63,34.63,0,0,1-3.67.77c-.45.08-.78.1-.93.68-.84,3.39-1.64,6.77-.85,10.28.68,3,2.26,3.93,5.2,2.84,3.34-1.22,5.76-3.65,8-6.3,5.19-6.17,8.75-13.27,11.84-20.64.33-.8.72-1.57,1.12-2.34.16-.29.4-.58.81-.49s.41.48.42.81a9.37,9.37,0,0,1-.48,4c-3.26,7.93-7,15.6-12.59,22.2-3.61,4.26-7.94,7.45-13.55,8.63-4.49.94-7.74-.53-9-4.22A12.68,12.68,0,0,1,202.42,200.72Zm-51.7,23.56c2.37-11.49,6.07-22.59,9.9-33.64,3.76-10.82,7.5-21.65,12.32-32.07a1.83,1.83,0,0,0,.08-.43c-.52-.38-1,.06-1.36.2-6.24,2.09-12.32,4.52-17.56,8.65a13.3,13.3,0,0,0-3.67,4.45c-.27.53-.35,1.57-1.26,1.25s-.76-1.32-.55-2a25,25,0,0,1,3.42-7.3c3.1-4.42,7.44-6.71,12.66-7.69,8.43-1.57,16.75-3.59,25.08-5.62a19.54,19.54,0,0,1,9.18-.5,8.11,8.11,0,0,1,6.37,8c.21,6-2.2,11.07-5.75,15.71-4,5.28-9.38,8.9-15.33,11.69-1.1.52-1.29,1-.87,2.15a53.77,53.77,0,0,0,16.38,23.36l1.65,1.42a2.09,2.09,0,0,1,.18.37c-2.9,1.43-6.07,2.08-9.06,3.21-3.66,1.39-6.1-.12-8.12-2.86-5.19-7-8.2-15-9.92-23.53-.1-.47,0-1-.09-1.45a2.17,2.17,0,0,1,1.7-2.58A39.5,39.5,0,0,0,190,176.34a20.76,20.76,0,0,0,6.48-14.45c.2-4.58-2.68-7.4-7.26-7.76-3.44-.27-5.26,1-6.74,4a260.18,260.18,0,0,0-13.59,34.21,212.6,212.6,0,0,0-6.24,22.21,29.71,29.71,0,0,0-.75,7.92c0,.67,0,1.12-.81,1.24-3.18.51-6.37,1-9.55,1.56C150.64,225.46,150.54,225.14,150.72,224.28ZM501.85,140.6c1.12.46,2.25,1.14,3.38,1.48,2.35.7,4.3,2.29,6.69,2.83a1.29,1.29,0,0,1,1.12,1.3,29.44,29.44,0,0,1-.3,4.2c0,.47-.31.69-.81.51-3.7-1.35-7.35-2.83-11.1-4A124.84,124.84,0,0,0,482,142.26c-3.68-.55-7.36-1.08-11-1.53a117.19,117.19,0,0,0-13.5-.53,141.2,141.2,0,0,0-16.71.64A200.56,200.56,0,0,0,418,144.69c-7.86,1.84-15.68,3.77-23.32,6.38-4.14,1.41-8.28,2.81-12.39,4.3s-8.16,3-12.27,4.41c-5.07,1.75-10,3.87-15.13,5.52-4.73,1.52-9.24,3.53-13.77,5.5-3.29,1.43-6.42,3.22-9.73,4.6a63.53,63.53,0,0,0-6.72,3.32c-3.34,1.9-6.83,3.5-10.2,5.32q-6,3.2-12,6.29c-5.56,2.86-11,5.92-16.5,8.9-3.3,1.79-6.66,3.49-9.89,5.4-2.11,1.25-4.31,2.32-6.48,3.44-3.21,1.65-6.46,3.22-9.55,5.07-3.57,2.13-7.24,4.11-10.91,6-3.89,2-7.7,4.2-11.61,6.19-3.64,1.86-7.27,3.83-10.8,5.94a62.63,62.63,0,0,1-5.89,3.34c-3.79,1.73-7.32,4-11.15,5.61s-7.54,3.34-11.39,4.82c-7.49,2.9-15.11,5.39-22.8,7.65-3.87,1.14-7.9,1.73-11.87,2.49a126.3,126.3,0,0,1-24.44,2.16c-1.31,0-2.5.25-3.25-.62s-.67-3.63-.67-3.63V238.81s-.2-3.39.89-4.08,2.68-.67,4.46-.78a133.73,133.73,0,0,0,18.39-2.4c4.42-.9,8.85-1.76,13.24-2.87,4.9-1.24,9.79-2.49,14.6-4a264.73,264.73,0,0,0,25.93-9.26c2.78-1.2,5.5-2.58,8.29-3.66,6.48-2.52,12.65-5.62,18.83-8.76,9.63-4.88,19.52-9.21,29.26-13.86,4-1.89,7.81-4,11.77-5.83,4.63-2.13,9.24-4.32,13.83-6.53,11.94-5.75,23.9-11.45,36-16.78,3-1.34,6-2.88,9.06-4.12,4-1.62,8-3.37,12-4.85,4.47-1.63,8.82-3.59,13.35-5,4.29-1.39,8.49-3,12.77-4.39a291.49,291.49,0,0,1,31.7-8.08,187.73,187.73,0,0,1,34.73-3.58,138,138,0,0,1,21.85,1.49,157.4,157.4,0,0,1,22.45,4.72C493.21,137.47,497.59,138.88,501.85,140.6Zm2.46-22.8c.27-.26.53-.63,1-.42s.44.57.49,1a3.48,3.48,0,0,1-.84,3c-3.9,3.88-8,7.7-13.55,8.83a21.93,21.93,0,0,1-17-3.34,10.49,10.49,0,0,1-5-9.73c0-.87,0-1.74,0-2.85-1.22,1.32-2.33,2.48-3.4,3.67a23,23,0,0,1-13.85,7.59,19.94,19.94,0,0,1-10.58-.91c-3.6-1.42-5.16-4.2-5.38-7.88a35.39,35.39,0,0,1,.12-5.23c-1.39,1.83-2.74,3.7-4.18,5.5a41.11,41.11,0,0,1-8.39,8.22,9.23,9.23,0,0,1-5.78,2c-2.7-.1-4.12-1.4-4.14-4.12,0-3.09,1-6,1.85-8.9,1.36-4.37,3-8.62,4.68-12.89.37-1,1-2.13.17-3s-2.13-.41-3.17-.1c-2.77.85-4.7,2.85-6.39,5.06-4.15,5.45-6.69,11.68-8.77,18.13-.85,2.62-1.65,5.24-2.42,7.88a1.79,1.79,0,0,1-1.43,1.4c-2.11.52-4.2,1.09-6.31,1.61-1.33.33-1.53.16-1.09-1.14,1.12-3.28,2.33-6.54,3.48-9.82a3.12,3.12,0,0,0,.43-1.72,3.78,3.78,0,0,0-1.13,1.47,65.83,65.83,0,0,1-9.1,11.85,12.23,12.23,0,0,1-5.37,3.57c-3,.78-4.54-.32-4.76-3.42a30.19,30.19,0,0,1,.72-9.09c.07-.27.23-.52,0-.89-1.3,2.2-2.54,4.37-3.86,6.49-2.82,4.49-5.79,8.86-10.07,12.13a12.33,12.33,0,0,1-5.19,2.42,3.21,3.21,0,0,1-4-2.65c-.63-3-.1-6,.13-9h0c.18-.14.22-.42.08-.46s-.13.23-.18.36h0c-1.58,2.08-2.58,4.48-4,6.67-2.85,4.46-5.76,8.86-9.87,12.31a9.9,9.9,0,0,1-3.93,2.06c-2.34.6-3.69-.3-3.82-2.7-.21-4,.84-7.87,1.94-11.67,1.47-5,3-10,4.59-15,.22-.73.6-1.6-.09-2.13s-1.49,0-2.16.36c-3.92,2-6.27,5.36-8.32,9-4.07,7.34-6.53,15.28-8.7,23.33-.48,1.76-1,3.51-1.38,5.3a2.24,2.24,0,0,1-1.42,1.81c-2.2,1-4.38,2-6.57,3-.3.13-.64.43-1,.21s0-.61.07-.91c1.08-4.39,2.62-8.64,3.94-13,.11-.37.19-.73.29-1.11h0a.44.44,0,0,0,.09-.61l-.36.36h0a35.6,35.6,0,0,1-4.71,4.72,8.15,8.15,0,0,1-5.49,1.91c-1.11-.06-1.57.4-2,1.36-2.61,5.63-5.5,11.12-10.14,15.39-3.32,3.07-7,5.66-11.59,6.52-3.59.67-5.92-1.11-6.32-4.75a33.9,33.9,0,0,1,.11-7.4c.12-.22.27-.45,0-.66l-.19.47h0c-2.1,3.85-4.16,7.71-6.31,11.53a38.37,38.37,0,0,1-18.2,16.87,16.6,16.6,0,0,1-7.41,1.7c-2.53-.1-4-1.2-4.06-3.73-.12-3.46,1-6.47,4.07-8.45a5.41,5.41,0,0,1,1.59-.66,1.48,1.48,0,0,1,1.6.4c.42.5,0,.9-.22,1.31a8.36,8.36,0,0,0-1,4.6c.16,1.66.92,2.31,2.59,2.1a5.26,5.26,0,0,0,1.52-.41,12.26,12.26,0,0,0,7.28-8.5c.8-3.46-.31-5.62-2.83-7.11-.87-.51-1.75-1-2.65-1.48-4.24-2.21-5.2-5-4.17-9.73,1.5-6.87,6.22-11.15,12.53-13.8,2.08-.88,4.22-1.72,6.58-1.26,1.62.32,2.16,1,2.19,2.71a10.57,10.57,0,0,1-5.88,10c-.94.52-2.1,1-2.92,0s-.19-2.11.51-3,1.63-1.93,2.39-2.93c.57-.75,1.05-1.66.46-2.53s-1.54-.59-2.41-.4c-3.43.75-7,4.83-7,8a4,4,0,0,0,1.9,3.53,14,14,0,0,0,4.14,1.66c4.7,1.28,6.58,3.82,6.19,8.37a13.84,13.84,0,0,1-1.26,4.44l-.57,1.33.23.21c4.16-5.16,6.83-11.18,9.72-17.07.67-1.38,1.23-2.82,2-4.18.5-.94.58-2.24,2-2.51.31-.06.51-.87.73-1.35a49,49,0,0,1,9.39-14.36,24.9,24.9,0,0,1,12.09-7.39c4.07-1,6.69,1,7,5.2a32,32,0,0,1-1.27,11.15c-.34,1.23.22,1.32,1.12,1.31a6.71,6.71,0,0,0,4.56-2.26c2.48-2.39,4-5.42,5.62-8.39.37-.69.16-2.47,2-1.69a2.58,2.58,0,0,0,.3-.58c1.37-4.55,2.92-9.07,3-13.9a.93.93,0,0,1,.67-.94,31.81,31.81,0,0,1,5.67-2.15c1.63-.42,2.31.18,2.16,1.85-.07.76-.28,1.51-.42,2.27l.25.21c2.87-3.15,5.6-6.44,9.14-8.9a18.88,18.88,0,0,1,6.74-3.24c2-.44,3.13.47,3.25,2.54.14,2.33-.68,4.45-1.36,6.6-1.57,4.94-3.45,9.79-4.6,14.86a9.4,9.4,0,0,0-.28,3.59c.17,1,.72,1,1.41.66a7.07,7.07,0,0,0,1.22-1c4.23-3.93,6.79-9,9.41-14,.58-1.11,1.13-2.24,1.76-3.33.45-.78.6-1.82,1.85-2,.32,0,.57-.83.8-1.3a41.68,41.68,0,0,1,9-12.42c2.83-2.64,6-4.78,9.88-5.47,2.52-.45,5-.69,6.84,1.79.39.54.69.35,1-.14a15.26,15.26,0,0,1,1.78-2.29c2.43-2.94,5.8-3.62,9.32-4,.2.65-.3.94-.53,1.3a82.1,82.1,0,0,0-10,23,9.41,9.41,0,0,0-.25,3c.09,1.46.63,1.74,2,1.09a10.68,10.68,0,0,0,3.43-2.87,63.62,63.62,0,0,0,7.2-10.87c.61-1.1,1.2-2.21,1.84-3.29.22-.36.45-1,1.07-.3.21.23.34.16.57-.46a56.2,56.2,0,0,0,2.61-9.44,7.73,7.73,0,0,0,.28-2.58c-.06-.35,0-.72.42-.79a27.93,27.93,0,0,1,6.45-.73c1.36.08,1.7.8,1.66,2,0,.83-.52,1.58-.3,2.58,1.13-.94,2.16-1.87,3.25-2.71,3.61-2.78,7.58-4.66,12.23-4.67,2.84,0,4.13,1.51,3.82,4.35-.33,3.09-1.85,5.77-3,8.59a65.81,65.81,0,0,0-3.45,10.23,3.48,3.48,0,0,0-.14.7c0,.76-.27,1.65.51,2.15s1.58,0,2.28-.42c3.31-2.08,5.71-5.07,8-8.17,1.22-1.68,2.32-3.45,3.55-5.13.32-.44.49-1.61,1.56-.61.27.26.61-.46.85-.8,2.58-3.72,5.63-6.91,9.91-8.69,3.91-1.62,7.87-2.26,12-.78a10.48,10.48,0,0,1,5,3.75,6,6,0,0,1-.41,7,4.88,4.88,0,0,1-6.18,1.17,3.17,3.17,0,0,1-1.72-1.69c-.4-1.06-.33-2,.92-2.5a16,16,0,0,0,2.09-1,2.62,2.62,0,0,0,1.22-2.88c-.19-1.17-1.07-1.44-2.1-1.64a6.85,6.85,0,0,0-5.51,1.2c-6.19,4.59-10.34,10.39-10.39,18.46,0,3.31,2.09,5.35,5.41,5.52,5.33.26,9.5-2.17,13.28-5.53a69.18,69.18,0,0,0,7.13-8.06c.54-.66.85-1.79,2.19-1.39.23.07.69-.61,1-1a19.5,19.5,0,0,1,10.16-5.83c5.15-1,13.14,2.23,15.88,6.56,2.53,4,1.14,8-3.2,9a15.39,15.39,0,0,1-3,.37c-4.54.14-8.76-1.25-12.91-2.83-1-.39-1.29-.14-1.65.7a12.88,12.88,0,0,0-.83,7.67c.52,2.73,3.53,4.87,6.71,5.29,6.54.85,11.65-1.91,16.29-6C502,120.06,503.15,118.9,504.31,117.8Zm-3.75-18c-4.22-2.53-4.64-4.42-3.89-9s3.2-8.33,5.24-12.31A26.83,26.83,0,0,1,503.22,76c.78-1.23.26-2.07-.71-2.83a7.33,7.33,0,0,0-8.54.09,20.61,20.61,0,0,0-6.55,7.27,71.22,71.22,0,0,0-4.88,11.1c-.34,1-.76,1.43-1.86,1.13-2.18-.59-4.38-1.12-6.58-1.63-1.15-.27-1.22-.93-.79-1.82,1.17-2.43,2.36-4.86,3.54-7.29.27-.56.5-1.13.75-1.71h0c.16-.1.25-.23.08-.38,0,0-.17.13-.26.19l0,0-.05,0c-2.48,2.15-4.73,4.59-7.51,6.4-2.42,1.57-4.92,2.83-7.94,2.76-3.7-.09-5.87-2.38-5.94-6.54a28.14,28.14,0,0,1,2.6-11.48,36.56,36.56,0,0,1,5.55-9.3c2.21-2.64,4.84-3.91,8.32-2.71a26.73,26.73,0,0,0,2.8.72c1,.23,1,.57.33,1.31A54.52,54.52,0,0,0,466,76.39a14.79,14.79,0,0,0-1.14,4c-.25,2.05.68,2.93,2.68,2.51A11.19,11.19,0,0,0,473,79.73c2.15-2.1,4.24-4.26,6.35-6.41.71-.72,1.33-1.07,1.88.39,1.46-3.24,3-6.18,3-9.63,0-1.07.41-1.56,1.5-1.18a31.15,31.15,0,0,1,5.2,2.16c2.22,1.26,2.51,2,2,4.46,0,.23,0,.46-.08.84a48.84,48.84,0,0,1,5.23-1c4.5-.34,8.33,1.23,11.84,3.83,2.75,2,2.73,5.77,1.49,8.14-1.34,2.56-3.15,4.86-4.35,7.51A15.35,15.35,0,0,0,505.69,93c-.34,2.3.92,3.62,3.22,3.26q1.29-.21,2.55-.54c.79-.21,1.55-.5,2.41-.78,0,.4,0,.72,0,1,0,3.33,0,3.34-3.18,4.39C507.28,101.45,503.87,101.74,500.56,99.76Z" transform="translate(-130.33 -38.29)"/></svg>